<svg xmlns="http://www.w3.org/2000/svg" viewBox="0 0 64 64" role="img" aria-label="Qpic">
  <defs>
    <linearGradient id="qpicBadge" x1="0" y1="0" x2="1" y2="1">
      <stop offset="0" stop-color="#6a5cf0"/>
      <stop offset="1" stop-color="#574bd4"/>
    </linearGradient>
  </defs>
  <rect width="64" height="64" rx="16" fill="url(#qpicBadge)"/>
  <!-- Bold letter "Q": a thick ring with a tail crossing the lower-right -->
  <path
    fill="#ffffff"
    fill-rule="evenodd"
    d="M32 16c8.84 0 16 7.16 16 16 0 4.02-1.48 7.69-3.93 10.5l3.84 3.84a3.6 3.6 0 0 1-5.09 5.09l-4.2-4.2A15.93 15.93 0 0 1 32 48c-8.84 0-16-7.16-16-16s7.16-16 16-16Zm0 8a8 8 0 1 0 0 16 8 8 0 0 0 0-16Z"/>
</svg>
